# AST/ASF file generated using VICON BodyLanguage
# -----------------------------------------------
:version 1.10
:name VICON
:units
  mass 1.0
  length 0.45
  angle deg
:documentation
   .ast/.asf automatically generated from VICON data using
   VICON BodyBuilder and BodyLanguage model FoxedUp or BRILLIANT.MOD
:root
   order TX TY TZ RX RY RZ
   axis XYZ
   position 0 0 0  
   orientation 0 0 0 
:bonedata
  begin
     id 1 
     name lhipjoint
     direction 0.537252 -0.787203 0.302774 
     length 2.29576 
     axis 0 0 0  XYZ
  end
  begin
     id 2 
     name lfemur
     direction 0.34202 -0.939693 0  
     length 7.31114  
     axis 0 0 20  XYZ
    dof rx ry rz
    limits (-160.0 20.0)
           (-70.0 70.0)
           (-60.0 70.0)
  end
  begin
     id 3 
     name ltibia
     direction 0.34202 -0.939693 0   
     length 8.36008   
     axis 0 0 20   XYZ
    dof rx
    limits (-10.0 170.0)
  end
  begin
     id 4 
     name lfoot
     direction 0.0969116 -0.266263 0.959016   
     length 2.16704   
     axis -90 7.62852e-016 20   XYZ
    dof rx rz
    limits (-45.0 90.0)
           (-70.0 20.0)
  end
  begin
     id 5 
     name ltoes
     direction 1.53563e-011 -4.21779e-011 1   
     length 1.08338   
     axis -90 7.62852e-016 20   XYZ
    dof rx
    limits (-90.0 20.0)
  end
  begin
     id 6 
     name rhipjoint
     direction -0.588228 -0.754791 0.290308   
     length 2.39434  
     axis 0 0 0  XYZ 
  end
  begin
     id 7 
     name rfemur
     direction -0.34202 -0.939693 0   
     length 7.45207   
     axis 0 0 -20   XYZ
    dof rx ry rz
    limits (-160.0 20.0)
           (-70.0 70.0)
           (-70.0 60.0)
  end
  begin
     id 8 
     name rtibia
     direction -0.34202 -0.939693 0   
     length 8.03565   
     axis 0 0 -20   XYZ
    dof rx
    limits (-10.0 170.0)
 end
 begin
     id 9 
     name rfoot
     direction -0.107009 -0.294004 0.949795   
     length 2.11509  
     axis -90 -7.62852e-016 -20   XYZ
    dof rx rz
    limits (-45.0 90.0)
           (-20.0 70.0)
  end
  begin
     id 10 
     name rtoes
     direction -1.53533e-011 -4.22004e-011 1   
     length 1.05493   
     axis -90 -7.62852e-016 -20   XYZ
    dof rx
    limits (-90.0 20.0)
  end
  begin
     id 11 
     name lowerback
     direction -0.0115208 0.997969 -0.0626515   
     length 2.03153   
     axis 0 0 0   XYZ
    dof rx ry rz
    limits (-20.0 45.0)
           (-30.0 30.0)
           (-30.0 30.0)
  end
  begin
     id 12 
     name upperback
     direction -0.00423475 0.999974 -0.00583614   
     length 2.03619   
     axis 0 0 0   XYZ
    dof rx ry rz
    limits (-20.0 45.0)
           (-30.0 30.0)
           (-30.0 30.0)
  end
  begin
     id 13 
     name thorax
     direction 0.00289429 0.999728 0.0231573   
     length 2.03921   
     axis 0 0 0   XYZ
    dof rx ry rz
    limits (-20.0 45.0)
           (-30.0 30.0)
           (-30.0 30.0)
  end
  begin
     id 14 
     name lowerneck
     direction 0.0188995 0.987777 0.154721   
     length 1.78836   
     axis 0 0 0   XYZ
    dof rx ry rz
    limits (-20.0 45.0)
           (-30.0 30.0)
           (-30.0 30.0)
  end
  begin
     id 15 
     name upperneck
     direction -0.00612612 0.992995 -0.118   
     length 1.81789   
     axis 0 0 0   XYZ
    dof rx ry rz
    limits (-20.0 45.0)
           (-30.0 30.0)
           (-30.0 30.0)
  end
  begin
     id 16
     name head
     direction -0.00420226 0.998397 -0.0564482  
     length 1.82234  
     axis 0 0 0   XYZ
    dof rx ry rz
    limits (-20.0 45.0)
           (-30.0 30.0)
           (-30.0 30.0)
  end
  begin
     id 17 
     name lclavicle
     direction 0.916488 0.396539 0.0529676  
     length 3.51732  
     axis 0 0 0   XYZ
    dof ry rz
    limits (-20.0 10.0)
           (0.0 20.0)
  end
  begin
     id 18 
     name lhumerus
     direction 1 -4.4896e-011 8.36962e-028   
     length 5.45077   
     axis 180 -30 -90   XYZ
    dof rx ry rz
    limits (-60.0 90.0)
           (-90.0 90.0)
           (-90.0 90.0)
  end
  begin
     id 19
     name lradius
     direction 1 -4.48962e-011 3.01407e-027   
     length 3.05488   
     axis 180 -30 -90   XYZ
    dof rx
    limits (-10.0 170.0)
  end
  begin
     id 20
     name lwrist
     direction 1 -4.49002e-011 4.72961e-027   
     length 1.52744   
     axis -2.72261e-015 90 90   XYZ
    dof ry
    limits (-180.0 0.0)
 end
  begin
     id 21 
     name lhand
     direction 1 -4.4899e-011 9.45681e-027   
     length 0.638818   
     axis -6.0311e-015 90 90   XYZ
    dof rx rz
    limits (-90.0 90.0)
           (-45.0 45.0)
  end
  begin
     id 22 
     name lfingers
     direction 1 -4.48871e-011 1.88632e-026   
     length 0.515032   
     axis -1.20625e-014 90 90   XYZ
    dof rx
    limits (0.0 90.0)
  end
  begin
     id 23
     name lthumb
     direction 0.707107 -6.34964e-011 0.707107   
     length 0.739485   
     axis -90 45 6.32835e-014   XYZ
    dof rx rz
    limits (-45.0 45.0)
           (-45.0 45.0)
  end
  begin
     id 24 
     name rclavicle
     direction -0.949427 0.303202 0.0815894   
     length 3.76167  
     axis 0 0 0   XYZ 
    dof ry rz
    limits (-10.0 20.0)
           (-20.0 0.0)
  end
  begin
     id 25 
     name rhumerus
     direction -1 -4.48971e-011 -6.43969e-018  
     length 4.88702   
     axis 180 30 90   XYZ
    dof rx ry rz
    limits (-90.0 60.0)
           (-90.0 90.0)
           (-90.0 90.0)
  end
  begin
     id 26 
     name rradius
     direction -1 -4.48987e-011 5.46662e-027   
     length 3.22603   
     axis 180 30 90   XYZ
    dof rx
    limits (-10.0 170.0)
  end
  begin
     id 27 
     name rwrist
     direction -1 -4.48956e-011 4.72476e-027   
     length 1.61302   
     axis -2.72261e-015 -90 -90   XYZ
    dof ry
    limits (-180.0 0.0)
  end
  begin
     id 28
     name rhand
     direction -1 -4.4889e-011 9.43571e-027   
     length 0.716293   
     axis -6.0311e-015 -90 -90   XYZ
    dof rx rz
    limits (-90.0 90.0)
           (-45.0 45.0)
  end
  begin
     id 29
     name rfingers
     direction -1 -4.48887e-011 1.88701e-026   
     length 0.577494   
     axis -1.20625e-014 -90 -90   XYZ
    dof rx
    limits (0.0 90.0)
  end
  begin
     id 30
     name rthumb
     direction -0.707107 -6.34825e-011 0.707107   
     length 0.829169   
     axis -90 -45 -6.32835e-014   XYZ
    dof rx rz
    limits (-45.0 45.0)
           (-45.0 45.0)
  end
:hierarchy
  begin
    root lhipjoint rhipjoint lowerback
    lhipjoint lfemur
    lfemur ltibia
    ltibia lfoot
    lfoot ltoes
    rhipjoint rfemur
    rfemur rtibia
    rtibia rfoot
    rfoot rtoes
    lowerback upperback
    upperback thorax
    thorax lowerneck lclavicle rclavicle
    lowerneck upperneck
    upperneck head
    lclavicle lhumerus
    lhumerus lradius
    lradius lwrist
    lwrist lhand lthumb
    lhand lfingers
    rclavicle rhumerus
    rhumerus rradius
    rradius rwrist
    rwrist rhand rthumb
    rhand rfingers
  end

#!OML:ASF F:\VICON\USERDATA\INSTALL\rory3\rory3.ASF
:FULLY-SPECIFIED
:DEGREES
773
root 1.32051 18.5357 0.52391 134.797 88.6378 120.86
lowerback -8.79508 4.05138 -0.352441
upperback -3.91027 5.67144 -4.34335
thorax 1.26671 2.89236 -3.72879
lowerneck -4.67722 19.6449 15.1452
upperneck 17.8031 31.9929 -19.6542
head 12.429 14.7268 -4.03597
rclavicle -6.55989e-015 -3.97569e-015
rhumerus -46.5862 12.1862 -99.3388
rradius 40.2317
rwrist 0.048783
rhand -13.3672 5.99808
rfingers 7.12502
rthumb 12.7392 -23.5933
lclavicle -6.55989e-015 -3.97569e-015
lhumerus -102.445 -54.9495 127.806
lradius 90.2347
lwrist -5.10202
lhand -31.6431 6.20605
lfingers 7.12502
lthumb -4.90412 36.1293
rfemur -7.60693 -6.95408 16.8412
rtibia 1.03368e-014
rfoot -5.06022 6.55751
rtoes -8.78993
lfemur -16.1454 6.74876 -18.1176
ltibia 15.5046
lfoot -12.6872 -3.37645
ltoes -28.3021
774
root 1.32509 18.5365 0.520973 131.116 88.5598 117.212
lowerback -8.80444 4.04276 -0.480797
upperback -3.91234 5.67214 -4.36504
thorax 1.25982 2.89407 -3.6793
lowerneck -4.68794 19.6445 15.1644
upperneck 17.8873 32.0048 -19.6105
head 12.4601 14.7314 -4.0188
rclavicle -5.60076e-014 2.22639e-014
rhumerus -46.5497 12.178 -99.3868
rradius 40.2397
rwrist -0.0618845
rhand -13.3167 5.85333
rfingers 7.12502
rthumb 12.7879 -23.735
lclavicle -5.60076e-014 2.22639e-014
lhumerus -102.456 -54.933 127.833
lradius 90.2804
lwrist -5.04459
lhand -31.5437 6.22902
lfingers 7.12502
lthumb -4.80811 36.1545
rfemur -7.55478 -6.94582 16.6942
rtibia 0
rfoot -5.0476 6.53911
rtoes -8.74354
lfemur -16.0778 6.66217 -18.2335
ltibia 15.5159
lfoot -12.7545 -3.31626
ltoes -27.8696
775
root 1.32849 18.5374 0.518518 129.424 88.5414 115.514
lowerback -8.81814 4.06233 -0.51315
upperback -3.95362 5.7035 -4.40949
thorax 1.22791 2.91081 -3.70503
lowerneck -4.60978 19.6238 15.3086
upperneck 17.9512 31.9829 -19.5851
head 12.4863 14.7342 -4.03867
rclavicle -5.78463e-014 1.43125e-014
rhumerus -46.5048 12.0238 -99.4496
rradius 40.14
rwrist 0.00357199
rhand -13.291 5.97919
rfingers 7.12502
rthumb 12.8127 -23.6076
lclavicle -5.78463e-014 1.43125e-014
lhumerus -102.557 -54.944 127.901
lradius 90.2886
lwrist -4.95501
lhand -31.649 6.21658
lfingers 7.12502
lthumb -4.90985 36.1397
rfemur -7.54709 -6.92796 16.6424
rtibia -7.95139e-016
rfoot -5.04378 6.53979
rtoes -8.76922
lfemur -16.0556 6.61323 -18.2784
ltibia 15.5074
lfoot -12.7615 -3.24487
ltoes -27.8271
776
root 1.33382 18.5382 0.514126 130.778 88.5932 116.853
lowerback -8.8896 4.08462 -0.425844
upperback -3.9736 5.72843 -4.41428
thorax 1.25679 2.923 -3.75138
lowerneck -4.56031 19.599 15.3902
upperneck 17.9827 31.9538 -19.5806
head 12.4972 14.7289 -4.05827
rclavicle -1.23743e-014 -2.54444e-014
rhumerus -46.5101 12.0267 -99.5759
rradius 40.1551
rwrist -0.146314
rhand -13.3633 5.91433
rfingers 7.12502
rthumb 12.743 -23.6768
lclavicle -1.23743e-014 -2.54444e-014
lhumerus -102.647 -54.9601 127.957
lradius 90.2869
lwrist -4.9033
lhand -31.766 6.23301
lfingers 7.12502
lthumb -5.02281 36.1535
rfemur -7.54301 -6.92336 16.697
rtibia -1.27222e-014
rfoot -5.07699 6.5472
rtoes -9.11377
lfemur -16.0334 6.64612 -18.231
ltibia 15.4603
lfoot -12.6723 -3.28031
ltoes -27.8841
777
root 1.33808 18.5386 0.509581 129.277 88.5904 115.401
lowerback -8.92087 4.09535 -0.448445
upperback -3.94407 5.74513 -4.4054
thorax 1.30261 2.93137 -3.724
lowerneck -4.56479 19.583 15.3774
upperneck 17.9892 31.927 -19.5696
head 12.4906 14.7171 -4.06021
rclavicle -4.50744e-014 -3.97569e-015
rhumerus -46.4301 11.9403 -99.5614
rradius 40.1302
rwrist -0.0357389
rhand -13.2911 5.94998
rfingers 7.12502
rthumb 12.8126 -23.6368
lclavicle -4.50744e-014 -3.97569e-015
lhumerus -102.654 -54.9625 128.001
lradius 90.3014
lwrist -4.84183
lhand -31.6894 6.28605
lfingers 7.12502
lthumb -4.94882 36.2083
rfemur -7.48289 -6.89926 16.6475
rtibia -8.74653e-015
rfoot -5.11313 6.53394
rtoes -9.11293
lfemur -15.9527 6.61981 -18.262
ltibia 15.4568
lfoot -12.6711 -3.21481
ltoes -27.9299
778
root 1.34227 18.5376 0.505447 128.117 88.5285 114.268
lowerback -8.97719 4.08363 -0.535614
upperback -3.91551 5.73854 -4.39601
thorax 1.35347 2.92877 -3.66094
lowerneck -4.58669 19.5739 15.3734
upperneck 18.0365 31.9279 -19.5672
head 12.5124 14.7141 -4.05594
rclavicle -3.65764e-014 1.51076e-014
rhumerus -46.4045 11.9478 -99.5904
rradius 40.1615
rwrist 0.0591793
rhand -13.3796 5.90407
rfingers 7.12502
rthumb 12.7272 -23.6881
lclavicle -3.65764e-014 1.51076e-014
lhumerus -102.661 -54.9981 128.053
lradius 90.3308
lwrist -4.74989
lhand -31.65 6.45859
lfingers 7.12502
lthumb -4.91082 36.3817
rfemur -7.44136 -6.92042 16.5486
rtibia 1.43125e-014
rfoot -5.12165 6.53892
rtoes -9.09761
lfemur -15.9033 6.63492 -18.3546
ltibia 15.4529
lfoot -12.7259 -3.25127
ltoes -28.2672
779
root 1.34582 18.5372 0.501268 131.056 88.5804 117.207
lowerback -9.05685 4.08883 -0.403445
upperback -3.8965 5.73593 -4.37851
thorax 1.42758 2.92646 -3.70955
lowerneck -4.59514 19.5713 15.3523
upperneck 18.0435 31.9129 -19.534
head 12.5025 14.7077 -4.04634
rclavicle 5.34731e-014 1.51076e-014
rhumerus -46.368 11.8722 -99.618
rradius 40.1923
rwrist 0.19121
rhand -13.395 5.88791
rfingers 7.12502
rthumb 12.7125 -23.7051
lclavicle 5.34731e-014 1.51076e-014
lhumerus -102.649 -55.039 128.088
lradius 90.3185
lwrist -4.6567
lhand -31.6546 6.49168
lfingers 7.12502
lthumb -4.91526 36.4147
rfemur -7.42751 -6.9459 16.631
rtibia 2.70347e-014
rfoot -5.12727 6.53182
rtoes -9.30102
lfemur -15.8902 6.73826 -18.2919
ltibia 15.4164
lfoot -12.7162 -3.37661
ltoes -28.3313
780
root 1.34888 18.5363 0.496846 131.649 88.5532 117.753
lowerback -9.14195 4.08476 -0.392406
upperback -3.90902 5.7333 -4.39356
thorax 1.4637 2.92574 -3.72579
lowerneck -4.62571 19.5764 15.3524
upperneck 18.0557 31.8953 -19.4775
head 12.4966 14.6999 -4.02925
rclavicle 1.38155e-014 1.11319e-014
rhumerus -46.3078 11.8156 -99.6582
rradius 40.1805
rwrist 0.272301
rhand -13.3067 5.85832
rfingers 7.12502
rthumb 12.7975 -23.7294
lclavicle 1.38155e-014 1.11319e-014
lhumerus -102.743 -55.0785 128.198
lradius 90.2839
lwrist -4.60494
lhand -31.6821 6.40646
lfingers 7.12502
lthumb -4.9418 36.3288
rfemur -7.45081 -6.98134 16.6068
rtibia -6.36111e-015
rfoot -5.14657 6.51318
rtoes -9.1707
lfemur -15.928 6.88933 -18.3526
ltibia 15.3836
lfoot -12.7202 -3.51901
ltoes -28.2812
781
root 1.35139 18.5367 0.492466 130.268 88.5104 116.358
lowerback -9.17389 4.06429 -0.436224
upperback -3.92589 5.71101 -4.39155
thorax 1.45791 2.91518 -3.7003
lowerneck -4.67472 19.5988 15.3326
upperneck 18.1802 31.9246 -19.3606
head 12.5308 14.7098 -3.97543
rclavicle -8.89561e-015 -1.51076e-014
rhumerus -46.3056 11.8264 -99.7057
rradius 40.1625
rwrist 0.30377
rhand -13.2701 6.00051
rfingers 7.12502
rthumb 12.8329 -23.585
lclavicle -8.89561e-015 -1.51076e-014
lhumerus -102.835 -55.0479 128.35
lradius 90.1978
lwrist -4.60557
lhand -31.9242 6.345
lfingers 7.12502
lthumb -5.17551 36.2618
rfemur -7.44788 -6.98846 16.5289
rtibia -9.54166e-015
rfoot -5.16657 6.51539
rtoes -8.99652
lfemur -15.9382 6.87765 -18.4238
ltibia 15.4221
lfoot -12.7247 -3.55134
ltoes -27.8208
